<mxfile host="app.diagrams.net" modified="2020-11-21T11:44:18.084Z" agent="5.0 (Windows NT 10.0; Win64; x64) AppleWebKit/537.36 (KHTML, like Gecko) Chrome/86.0.4240.198 Safari/537.36" etag="lMeFAJDbBh5JFrMurjk3" version="13.10.0" type="github">
  <diagram id="zIyZFx3Gzkx1ZShAhbHg" name="Page-1">
    <mxGraphModel dx="1092" dy="806" grid="1" gridSize="10" guides="1" tooltips="1" connect="1" arrows="1" fold="1" page="1" pageScale="1" pageWidth="850" pageHeight="1100" math="0" shadow="0">
      <root>
        <mxCell id="0" />
        <mxCell id="1" parent="0" />
        <mxCell id="NyP6Dlkk7SOf8Pi-9A_n-2" value="" style="shape=cube;whiteSpace=wrap;html=1;boundedLbl=1;backgroundOutline=1;darkOpacity=0.05;darkOpacity2=0.1;flipH=1;size=120;fillColor=none;" vertex="1" parent="1">
          <mxGeometry x="160" y="240" width="360" height="360" as="geometry" />
        </mxCell>
        <mxCell id="NyP6Dlkk7SOf8Pi-9A_n-6" value="" style="endArrow=none;dashed=1;html=1;dashPattern=1 3;strokeWidth=2;exitX=1;exitY=1;exitDx=0;exitDy=0;exitPerimeter=0;entryX=0;entryY=0;entryDx=240;entryDy=0;entryPerimeter=0;strokeColor=#BDBDBD;" edge="1" parent="1" source="NyP6Dlkk7SOf8Pi-9A_n-2" target="NyP6Dlkk7SOf8Pi-9A_n-2">
          <mxGeometry width="50" height="50" relative="1" as="geometry">
            <mxPoint x="400" y="440" as="sourcePoint" />
            <mxPoint x="100" y="530" as="targetPoint" />
            <Array as="points">
              <mxPoint x="280" y="480" />
            </Array>
          </mxGeometry>
        </mxCell>
        <mxCell id="NyP6Dlkk7SOf8Pi-9A_n-7" value="" style="endArrow=none;dashed=1;html=1;dashPattern=1 3;strokeWidth=2;entryX=0;entryY=0;entryDx=0;entryDy=240;entryPerimeter=0;strokeColor=#BDBDBD;" edge="1" parent="1" target="NyP6Dlkk7SOf8Pi-9A_n-2">
          <mxGeometry width="50" height="50" relative="1" as="geometry">
            <mxPoint x="280" y="480" as="sourcePoint" />
            <mxPoint x="330" y="390" as="targetPoint" />
          </mxGeometry>
        </mxCell>
      </root>
    </mxGraphModel>
  </diagram>
</mxfile>
